<svg xmlns="http://www.w3.org/2000/svg" viewBox="0 0 338.92 338.92">
  <path d="M1.144 194.46c4.573 31 17.578 59.389 36.613 82.648l28.459-28.428c-12.036-15.667-20.59-34.22-24.5-54.22H1.144zM62 96.2L33.349 67.58C14.839 92.223 2.867 121.46 0 154.46h40.204c2.488-22 10.187-41.3 21.796-58.26zm209.972 153.403l28.43 28.461c19.45-23.43 32.739-52.605 37.373-83.605h-40.572c-3.988 20.001-12.807 39.276-25.231 55.144zm5.332-211.846C252.749 17.662 222.46 4.291 189.46.463v40.341c22 3.368 42.285 12.341 59.299 25.412l28.545-28.459zm21.412 116.703h40.204c-2.904-33-15.158-63.005-34.08-87.833l-28.61 28.578c11.993 17.178 19.948 37.255 22.486 59.255zM189.46 298.116v40.341c30-3.541 58.739-15.244 82.228-32.886l-28.736-28.651c-15.757 10.785-34.492 18.203-53.492 21.196zm-122.669 6.723c23.506 17.914 51.669 29.854 82.669 33.539v-40.373c-20-3.125-38.345-10.744-54.145-21.775l-28.524 28.609zM89.549 66.948c17.031-13.334 36.911-22.52 59.911-26.033V.541c-34 3.982-63.706 17.596-88.255 37.976l28.344 28.431z"/>
</svg>